<?xml version="1.0" encoding="UTF-8"?>
<!-- Generated by Pixelmator Pro 3.3.9 -->
<svg width="512" height="512" viewBox="0 0 512 512" xmlns="http://www.w3.org/2000/svg">
    <path id="path1" fill="#ededed" stroke="none" d="M 277.333344 85.333344 C 277.333344 97.115417 286.884583 106.666656 298.666656 106.666656 L 383.274658 106.666656 C 381.70401 92.814453 375.625122 79.862152 365.973358 69.802673 L 317.248016 19.477325 C 306.588867 8.673035 292.448364 1.991974 277.333344 0.618652 Z M 234.666672 85.333344 L 234.666672 0 L 149.333328 0 C 90.452202 0.070526 42.737198 47.785522 42.666668 106.666656 L 42.666668 320 C 42.737198 378.881165 90.452202 426.596161 149.333328 426.666656 L 277.333344 426.666656 C 336.214447 426.596161 383.929474 378.881165 384 320 L 384 149.333344 L 298.666656 149.333344 C 263.320435 149.333344 234.666672 120.679565 234.666672 85.333344 Z M 362.666656 512 L 170.666672 512 C 158.884598 512 149.333328 502.44873 149.333328 490.666656 C 149.333328 478.884613 158.884598 469.333344 170.666672 469.333344 L 362.666656 469.333344 C 398.012909 469.333344 426.666656 440.679565 426.666656 405.333344 L 426.666656 170.666656 C 426.666656 158.884583 436.217926 149.333344 448 149.333344 C 459.782074 149.333344 469.333344 158.884583 469.333344 170.666656 L 469.333344 405.333344 C 469.262817 464.214478 421.547821 511.929474 362.666656 512 Z"/>
</svg>
