<?xml version="1.0" encoding="UTF-8"?>
<!-- Generated by Pixelmator Pro 3.3.9 -->
<svg width="512" height="512" viewBox="0 0 512 512" xmlns="http://www.w3.org/2000/svg">
    <path id="path1" fill="#ededed" stroke="none" d="M 505.791992 155.733337 C 513.856323 164.126434 513.704529 177.434479 505.450958 185.64151 C 497.197357 193.848541 483.888672 193.924988 475.541351 185.813324 L 416 126.186676 L 356.266693 185.920013 C 350.962769 191.821411 342.821808 194.291626 335.132813 192.332611 C 327.443817 190.373627 321.477356 184.309113 319.64389 176.589233 C 317.810425 168.869354 320.412933 160.769714 326.399994 155.562653 L 385.834686 96 L 326.208008 36.416016 C 320.39621 31.107056 317.980133 23.029083 319.922516 15.400909 C 321.864899 7.772705 327.850067 1.833984 335.493134 -0.04895 C 343.13623 -1.931824 351.195099 0.547058 356.458649 6.399994 L 416 65.877319 L 475.733307 6.250671 C 484.208771 -1.177856 497.000366 -0.732361 504.938477 7.267822 C 512.876526 15.268036 513.222351 28.062714 505.727997 36.480011 L 446.165314 96 Z M 440.640015 317.013306 C 415.053009 292.668091 374.851959 292.724487 349.333344 317.141357 L 308.671997 351.402649 C 241.615784 323.644653 188.3927 270.298706 160.789337 203.17868 L 194.922668 162.645325 C 219.339523 137.126678 219.395874 96.925659 195.050659 71.338684 C 195.050659 71.338684 155.541336 20.032013 154.901337 19.349335 C 129.55574 -6.134888 88.452187 -6.571777 62.570667 18.368011 L 38.058666 39.701324 C -126.634666 214.82666 298.325348 639.978699 473.258667 472.767975 L 492.714691 450.389313 C 518.455261 424.577515 518.455261 382.803772 492.714691 356.992004 C 492.010651 356.437317 440.640015 316.927979 440.640015 316.927979 Z"/>
</svg>
